<?xml version="1.0" standalone="no"?>
<!DOCTYPE svg PUBLIC "-//W3C//DTD SVG 20010904//EN"
 "http://www.w3.org/TR/2001/REC-SVG-20010904/DTD/svg10.dtd">
<svg version="1.0" xmlns="http://www.w3.org/2000/svg"
 width="512.000000pt" height="512.000000pt" viewBox="0 0 512.000000 512.000000"
 preserveAspectRatio="xMidYMid meet">
<metadata>
Created by potrace 1.14, written by Peter Selinger 2001-2017
</metadata>
<g transform="translate(0.000000,512.000000) scale(0.100000,-0.100000)"
fill="#000000" stroke="none">
<path d="M1782 4234 c3 -28 149 -195 297 -338 l81 -79 48 8 c66 10 95 7 105
-10 4 -8 15 -15 22 -15 18 0 21 -45 4 -56 -6 -3 -9 -15 -6 -25 3 -11 1 -17 -4
-13 -5 3 -9 1 -9 -5 0 -14 220 -182 292 -223 31 -18 58 -35 58 -38 0 -3 -35
-23 -77 -44 -135 -66 -322 -177 -338 -199 -14 -20 -14 -23 4 -31 25 -11 39
-65 20 -77 -22 -14 -112 -10 -143 6 -33 17 -24 23 -195 -134 -52 -47 -106 -92
-120 -99 -37 -19 -86 -60 -79 -67 18 -18 379 -37 395 -21 4 3 54 6 112 6 103
0 288 21 310 35 6 3 9 11 5 16 -3 5 7 22 23 37 15 15 33 36 39 47 11 19 11 19
53 1 23 -11 53 -30 67 -42 24 -23 27 -23 77 -10 29 8 65 19 81 25 23 9 31 9
38 -1 6 -9 8 -7 6 7 -2 13 3 20 12 20 9 0 22 6 30 13 8 7 46 33 85 57 l69 44
36 -26 c19 -15 50 -39 68 -55 36 -31 66 -36 88 -13 13 13 19 13 42 1 15 -7 32
-11 38 -9 17 6 34 -51 27 -92 -5 -33 -2 -38 67 -102 77 -72 133 -113 240 -175
70 -41 100 -47 124 -23 14 14 22 14 78 0 35 -9 70 -23 79 -31 8 -8 20 -14 24
-14 5 0 18 -11 30 -24 26 -31 225 -92 225 -70 0 5 -11 28 -25 52 l-24 42 47 0
47 1 -30 21 c-16 12 -75 68 -130 125 -55 57 -135 130 -178 162 -78 58 -79 58
-124 49 -36 -8 -48 -7 -60 5 -14 14 -14 20 0 55 21 53 18 57 -166 204 -149
118 -217 181 -217 198 0 4 23 28 52 53 l52 44 -30 17 c-16 9 -20 14 -9 11 16
-4 20 0 21 21 3 35 7 37 50 25 37 -10 39 -9 99 44 114 100 229 219 305 315 81
102 95 126 106 179 6 32 5 33 -17 28 -13 -3 -37 -10 -54 -15 -33 -12 -229 -54
-337 -74 l-68 -11 0 -36 c0 -46 -6 -54 -57 -74 -30 -12 -50 -14 -70 -8 -15 5
-40 12 -54 15 -18 4 -29 14 -33 31 -4 14 -11 25 -17 25 -6 0 -7 5 -4 10 21 34
-172 -14 -263 -66 -42 -24 -85 -44 -94 -44 -9 0 -36 15 -60 33 -24 18 -71 51
-106 74 l-62 42 -23 -22 c-45 -42 -66 -50 -93 -32 -27 17 -39 53 -30 89 6 23
-1 28 -81 67 -143 67 -284 126 -343 143 -30 8 -114 20 -186 26 -72 6 -157 17
-188 25 -75 20 -76 19 -74 -11z"/>
<path d="M3041 2924 c0 -11 3 -14 6 -6 3 7 2 16 -1 19 -3 4 -6 -2 -5 -13z"/>
<path d="M2824 2795 c9 -13 16 -31 16 -39 0 -10 6 -13 15 -10 8 4 15 2 15 -4
0 -16 96 -52 138 -52 50 0 186 35 215 55 28 20 22 19 -48 -5 -70 -24 -65 -24
-66 -2 0 14 -2 13 -9 -4 -6 -16 -20 -23 -59 -28 -64 -8 -118 13 -179 72 -48
47 -62 54 -38 17z"/>
<path d="M2433 2725 c0 -8 4 -12 9 -9 5 3 6 10 3 15 -9 13 -12 11 -12 -6z"/>
<path d="M2857 2673 c-6 -11 9 -49 22 -57 6 -4 4 6 -4 20 -8 15 -12 31 -9 36
3 4 3 8 0 8 -3 0 -7 -3 -9 -7z"/>
<path d="M2872 2580 c7 -11 18 -20 25 -20 8 0 5 8 -7 20 -11 11 -22 20 -25 20
-3 0 0 -9 7 -20z"/>
<path d="M2856 2435 c19 -59 27 -74 47 -80 68 -21 103 -26 206 -30 63 -3 116
-7 118 -9 10 -10 63 17 63 31 0 12 -3 13 -15 3 -10 -8 -51 -12 -125 -11 -207
3 -246 13 -279 75 -12 23 -19 32 -15 21z"/>
<path d="M2918 2115 c2 -14 8 -23 12 -20 10 6 1 45 -10 45 -4 0 -5 -11 -2 -25z"/>
<path d="M3014 2099 c-3 -6 -1 -15 6 -19 15 -9 15 -20 -2 -32 -11 -8 -10 -9 1
-6 17 5 26 48 10 48 -5 0 -7 5 -4 10 3 6 4 10 1 10 -3 0 -8 -5 -12 -11z"/>
<path d="M2860 2088 c0 -8 7 -21 15 -28 8 -7 12 -17 8 -23 -3 -5 -1 -7 5 -3 6
3 19 -5 30 -19 11 -14 23 -25 27 -25 12 0 60 -41 67 -58 6 -15 7 -15 7 2 1 13
6 16 19 11 28 -12 134 -24 167 -19 43 7 95 34 95 50 0 8 -6 11 -15 8 -8 -4
-15 -10 -15 -14 0 -5 -16 -14 -36 -20 -47 -16 -164 -5 -164 16 0 17 -20 19
-20 2 -1 -9 -4 -8 -13 2 -7 8 -23 17 -37 18 -31 5 -50 20 -50 40 0 8 -3 12 -7
8 -4 -3 -24 10 -45 31 -26 25 -38 32 -38 21z"/>
<path d="M3066 1845 c4 -8 11 -15 16 -15 6 0 5 6 -2 15 -7 8 -14 15 -16 15 -2
0 -1 -7 2 -15z"/>
<path d="M3060 1750 c0 -5 7 -7 15 -4 8 4 15 8 15 10 0 2 -7 4 -15 4 -8 0 -15
-4 -15 -10z"/>
<path d="M3076 1715 c4 -8 10 -15 15 -15 4 0 6 7 3 15 -4 8 -10 15 -15 15 -4
0 -6 -7 -3 -15z"/>
<path d="M2893 1677 c21 -33 54 -67 64 -67 4 0 24 -12 45 -27 32 -22 50 -26
107 -27 38 -1 67 2 64 7 -4 6 36 12 65 8 6 -1 12 5 12 14 0 9 5 13 10 10 6 -3
10 3 10 14 0 12 -4 21 -10 21 -5 0 -10 -6 -10 -12 0 -9 -4 -8 -10 2 -8 13 -11
11 -16 -7 -7 -25 -34 -33 -118 -32 -62 0 -112 22 -166 71 -14 13 -34 30 -45
38 -19 15 -19 15 -2 -13z"/>
<path d="M3062 1660 c0 -14 2 -19 5 -12 2 6 2 18 0 25 -3 6 -5 1 -5 -13z"/>
<path d="M3020 1626 c0 -8 4 -17 9 -20 5 -4 7 3 4 14 -6 23 -13 26 -13 6z"/>
<path d="M3055 1600 c-3 -5 1 -10 9 -10 9 0 16 5 16 10 0 6 -4 10 -9 10 -6 0
-13 -4 -16 -10z"/>
<path d="M2936 1347 c13 -35 284 -112 352 -100 24 4 102 49 102 59 0 3 -22 -7
-49 -22 -36 -19 -58 -25 -83 -21 -18 3 -64 10 -102 15 -38 6 -73 16 -77 24 -5
7 -9 9 -9 3 0 -5 -7 -1 -15 9 -8 11 -15 15 -15 9 0 -11 -30 -1 -82 28 -24 12
-28 11 -22 -4z"/>
<path d="M2360 1265 c-7 -9 -10 -18 -7 -21 3 -3 10 4 17 15 13 25 8 27 -10 6z"/>
<path d="M0 589 l0 -555 158 -14 c127 -11 614 -15 2560 -17 l2402 -4 0 551 0
550 -367 0 c-353 0 -366 -1 -343 -17 14 -10 106 -72 204 -138 174 -116 183
-124 258 -220 42 -55 89 -122 103 -149 27 -51 27 -53 -8 -150 -16 -43 -97
-117 -163 -149 -33 -16 -68 -34 -79 -40 -70 -37 -375 -48 -669 -22 -94 8 -227
19 -296 25 -69 6 -161 15 -205 20 -152 17 -321 22 -427 11 -115 -11 -153 -7
-412 46 l-128 26 -122 -17 c-66 -9 -182 -31 -256 -49 -125 -30 -147 -32 -300
-31 -91 1 -226 8 -300 17 -74 8 -152 12 -172 10 -21 -3 -38 -1 -38 4 0 5 -19
8 -42 6 -37 -2 -39 -1 -13 5 30 8 30 8 -12 15 -23 4 -49 4 -57 1 -9 -3 -16 -2
-16 4 0 5 -10 10 -23 10 -24 -1 -152 25 -237 47 -30 8 -118 30 -195 50 -281
71 -325 86 -472 161 -175 90 -219 121 -257 179 -62 92 -64 106 -25 171 50 81
77 105 185 160 l97 49 -59 7 c-32 4 -107 7 -166 5 l-108 -2 0 -556z m3350
-329 c0 -5 -2 -10 -4 -10 -3 0 -8 5 -11 10 -3 6 -1 10 4 10 6 0 11 -4 11 -10z"/>
<path d="M3290 975 c0 -14 4 -25 9 -25 4 0 6 11 3 25 -2 14 -6 25 -8 25 -2 0
-4 -11 -4 -25z"/>
<path d="M3233 964 c3 -4 2 -15 -3 -25 -6 -10 -6 -20 -1 -23 5 -3 11 4 15 17
8 32 7 37 -6 37 -6 0 -8 -3 -5 -6z"/>
<path d="M2980 944 c0 -12 38 -53 43 -47 9 8 67 -17 67 -29 0 -5 4 -7 9 -3 5
3 12 1 16 -5 4 -6 10 -8 15 -5 15 9 60 -6 60 -21 0 -15 9 -18 26 -6 11 7 11
39 -1 50 -3 4 -9 1 -14 -6 -10 -16 -95 9 -168 49 -29 15 -53 26 -53 23z"/>
<path d="M3280 919 c0 -5 5 -7 10 -4 6 3 10 8 10 11 0 2 -4 4 -10 4 -5 0 -10
-5 -10 -11z"/>
<path d="M3470 884 c0 -18 -87 -35 -160 -32 -70 3 -73 2 -75 -20 -1 -19 0 -20
14 -8 14 12 18 12 30 -2 10 -10 16 -12 19 -4 5 16 42 15 42 0 0 -10 2 -10 8 0
8 12 31 20 81 27 27 4 58 31 48 41 -4 4 -7 3 -7 -2z"/>
<path d="M3260 810 c0 -5 5 -10 11 -10 5 0 7 5 4 10 -3 6 -8 10 -11 10 -2 0
-4 -4 -4 -10z"/>
</g>
</svg>
